<svg width="400" height="400" viewBox="0 0 400 400" fill="none" xmlns="http://www.w3.org/2000/svg">
<rect width="400" height="400" rx="50" fill="black"/>
<path d="M116.205 275H64.642V129.545H116.631C131.261 129.545 143.856 132.457 154.415 138.281C164.973 144.058 173.094 152.367 178.776 163.21C184.505 174.053 187.369 187.027 187.369 202.131C187.369 217.282 184.505 230.303 178.776 241.193C173.094 252.083 164.926 260.44 154.273 266.264C143.667 272.088 130.977 275 116.205 275ZM95.3949 248.651H114.926C124.017 248.651 131.664 247.041 137.866 243.821C144.116 240.554 148.804 235.511 151.929 228.693C155.101 221.828 156.688 212.973 156.688 202.131C156.688 191.383 155.101 182.599 151.929 175.781C148.804 168.963 144.14 163.944 137.938 160.724C131.735 157.505 124.088 155.895 114.997 155.895H95.3949V248.651Z" fill="white"/>
<path d="M210.15 275V129.545H240.903V189.56H303.332V129.545H334.013V275H303.332V214.915H240.903V275H210.15Z" fill="#43FF64" fill-opacity="0.85098"/>
</svg>
